<?xml version="1.0" encoding="UTF-8"?>
<svg width="64px" height="42px" viewBox="0 0 64 42" version="1.1" xmlns="http://www.w3.org/2000/svg" xmlns:xlink="http://www.w3.org/1999/xlink">
    <!-- Generator: Sketch 50.2 (55047) - http://www.bohemiancoding.com/sketch -->
    <title>Shape</title>
    <desc>Created with Sketch.</desc>
    <defs></defs>
    <g id="Page-1" stroke="none" stroke-width="1" fill="none" fill-rule="evenodd">
        <g id="RYU-lookbook-vert" transform="translate(-125.000000, -60.000000)" fill="#FFF" fill-rule="nonzero">
            <g id="Group-7" transform="translate(-38.000000, 0.000000)">
                <g id="Group-9">
                    <g id="Group-8-Copy" transform="translate(20.000000, 0.000000)">
                        <g id="Group" transform="translate(133.000000, 60.000000)">
                            <path d="M29.3000949,18.075217 C29.3000949,18.075217 32.7804958,16.8871745 34.0606825,14.646866 L37.4386685,19.2123433 L37.4386685,24.3039537 L43.8891026,24.3039537 L43.8891026,19.3481196 L49.1276267,11.4900675 L49.1276267,13.6115718 C49.1276267,13.6115718 48.7862435,24.4736741 61.7588022,24.422758 C74.7313609,24.3718419 73.9922664,12.6781099 73.9922664,12.6781099 L73.9922664,0.0339440694 L67.610109,0.0339440694 L67.610109,13.204243 C67.610109,13.204243 67.9856304,18.9917068 61.7570953,18.9917068 C55.5285602,18.9917068 55.5626985,13.5776278 55.5626985,13.5776278 L55.5285602,0.0169720347 L49.1464027,0.0169720347 L40.6306007,13.5945998 L33.0877406,2.68158149 C33.0877406,2.68158149 31.7068459,0.0169720347 26.6543757,0 L10,0 L10,24.2700096 L16.6894023,24.2700096 L16.6894023,18.9747348 L20.903777,18.9747348 L16.6569709,13.1533269 L16.6569709,5.70260366 L24.402954,5.70260366 C24.402954,5.70260366 28.8904351,5.49893925 28.8562968,9.41947927 C28.8562968,9.41947927 29.1123342,12.8648023 24.624853,13.0175506 L18.293903,13.0175506 L40.0417148,41.4117647 L47.4309525,41.4117647 L29.3000949,18.075217 Z" id="Shape"></path>
                        </g>
                    </g>
                </g>
            </g>
        </g>
    </g>
</svg>